<?xml version="1.0" encoding="UTF-8"?>
<svg width="56px" height="56px" viewBox="0 0 56 56" version="1.1" xmlns="http://www.w3.org/2000/svg" xmlns:xlink="http://www.w3.org/1999/xlink">
    <!-- Generator: Sketch 52.6 (67491) - http://www.bohemiancoding.com/sketch -->
    <title>Group 11</title>
    <desc>Created with Sketch.</desc>
    <g id="Page-1" stroke="none" stroke-width="1" fill="none" fill-rule="evenodd">
        <g id="Design" transform="translate(-875.000000, -187.000000)">
            <g id="Group-10" transform="translate(98.000000, 187.000000)">
                <g id="Group-11" transform="translate(777.000000, 0.000000)">
                    <circle id="Oval" fill="#FF9F00" cx="28" cy="28" r="28"></circle>
                    <path d="M28,37.552 C29.6800084,37.552 31.2479927,37.122671 32.704,36.264 C34.1226738,35.4426626 35.2426626,34.3226738 36.064,32.904 C36.922671,31.4479927 37.352,29.8800084 37.352,28.2 C37.352,26.5199916 36.922671,24.9520073 36.064,23.496 C35.2426626,22.0773262 34.1226738,20.9573374 32.704,20.136 C31.2479927,19.277329 29.6800084,18.848 28,18.848 C26.3199916,18.848 24.7520073,19.277329 23.296,20.136 C21.8773262,20.9573374 20.7573374,22.0773262 19.936,23.496 C19.077329,24.9520073 18.648,26.5199916 18.648,28.2 C18.648,29.8800084 19.077329,31.4479927 19.936,32.904 C20.7573374,34.3226738 21.8773262,35.4426626 23.296,36.264 C24.7520073,37.122671 26.3199916,37.552 28,37.552 Z M28,16.552 C30.1280106,16.552 32.0973243,17.0839947 33.908,18.148 C35.6626754,19.156005 37.043995,20.5373246 38.052,22.292 C39.1160053,24.1026757 39.648,26.0719894 39.648,28.2 C39.648,30.3280106 39.1160053,32.2973243 38.052,34.108 C37.043995,35.8626754 35.6626754,37.243995 33.908,38.252 C32.0973243,39.3160053 30.1280106,39.848 28,39.848 C25.8719894,39.848 23.9026757,39.3160053 22.092,38.252 C20.3373246,37.2253282 18.956005,35.8346754 17.948,34.08 C16.8839947,32.2693243 16.352,30.3093439 16.352,28.2 C16.352,26.0906561 16.8839947,24.1306757 17.948,22.32 C18.9746718,20.5653246 20.3653246,19.1746718 22.12,18.148 C23.9306757,17.0839947 25.8906561,16.552 28,16.552 Z M29.148,22.348 L29.148,27.052 L33.852,27.052 L33.852,29.348 L29.148,29.348 L29.148,34.052 L26.852,34.052 L26.852,29.348 L22.148,29.348 L22.148,27.052 L26.852,27.052 L26.852,22.348 L29.148,22.348 Z" id="" fill="#FFFFFF"></path>
                </g>
            </g>
        </g>
    </g>
</svg>