<?xml version="1.0" encoding="UTF-8"?>
<svg width="34px" height="34px" viewBox="0 0 34 34" version="1.1" xmlns="http://www.w3.org/2000/svg" xmlns:xlink="http://www.w3.org/1999/xlink">
    <!-- Generator: Sketch 52.6 (67491) - http://www.bohemiancoding.com/sketch -->
    <title>ic_attach</title>
    <desc>Created with Sketch.</desc>
    <g id="Page-1" stroke="none" stroke-width="1" fill="none" fill-rule="evenodd">
        <g id="Design" transform="translate(-999.000000, -1159.000000)">
            <g id="Group-8" transform="translate(983.000000, 1145.000000)">
                <g id="ic_attach" transform="translate(16.000000, 14.000000)">
                    <g id="Rectangle-Copy-2" fill="#FFFFFF">
                        <rect x="0" y="0" width="34" height="34" rx="5"></rect>
                    </g>
                    <path d="M9.37890625,26.9375 C8.9492166,26.9375 8.53580928,26.8496103 8.13867187,26.6738281 C7.74153447,26.498046 7.38020996,26.2473975 7.0546875,25.921875 C6.33853809,25.2057256 5.98046875,24.3365937 5.98046875,23.3144531 C5.98046875,22.2923126 6.33853809,21.4231807 7.0546875,20.7070312 L18.2851562,8.79296875 C18.7148459,8.3502582 19.1998671,8.0279958 19.7402344,7.82617187 C20.2806017,7.62434795 20.8339815,7.53971338 21.4003906,7.57226562 C21.9667997,7.60481787 22.5299451,7.75455596 23.0898437,8.02148437 C23.6497424,8.28841279 24.1770809,8.66275801 24.671875,9.14453125 C25.1015646,9.5872418 25.4368478,10.1113251 25.6777344,10.7167969 C25.918621,11.3222687 26.0325521,11.9570279 26.0195312,12.6210937 C26.0065104,13.2851596 25.8763033,13.9166637 25.6289062,14.515625 C25.3815092,15.1145863 25.0429709,15.6354145 24.6132812,16.078125 L16.1171875,25.1015625 C15.9999994,25.2317715 15.8567717,25.3001302 15.6875,25.3066406 C15.5182283,25.3131511 15.3684902,25.2578131 15.2382812,25.140625 C15.1210932,25.0234369 15.0592448,24.876954 15.0527344,24.7011719 C15.0462239,24.5253897 15.1015619,24.3723965 15.21875,24.2421875 L23.7148437,15.21875 C24.0403662,14.8802066 24.2942699,14.4830752 24.4765625,14.0273437 C24.6588551,13.5716123 24.7565104,13.0963566 24.7695312,12.6015625 C24.7695312,12.1067684 24.6848967,11.6347679 24.515625,11.1855469 C24.3463533,10.7363259 24.09896,10.3554703 23.7734375,10.0429687 C23.1744762,9.43098652 22.4388064,9.0305999 21.5664062,8.84179687 C20.6940061,8.65299385 19.8997432,8.92317344 19.1835937,9.65234375 L7.953125,21.5664062 C7.47135176,22.0481795 7.23046875,22.6276008 7.23046875,23.3046875 C7.23046875,23.9817742 7.47135176,24.5611955 7.953125,25.0429687 C8.17448027,25.264324 8.41536328,25.430338 8.67578125,25.5410156 C8.93619922,25.6516933 9.20963398,25.6940105 9.49609375,25.6679687 C9.76953262,25.6549479 10.0462226,25.5800788 10.3261719,25.4433594 C10.6061212,25.3066399 10.8632801,25.1145846 11.0976562,24.8671875 L20.0234375,15.375 C20.1927092,15.2057283 20.3717438,14.9485694 20.5605469,14.6035156 C20.7493499,14.2584618 20.6744809,13.9231787 20.3359375,13.5976562 C20.1536449,13.4023428 19.9973965,13.294922 19.8671875,13.2753906 C19.7369785,13.2558593 19.6523439,13.2460937 19.6132812,13.2460937 C19.4960932,13.2591146 19.3658861,13.3079423 19.2226562,13.3925781 C19.0794264,13.477214 18.9296883,13.5911451 18.7734375,13.734375 L12.0546875,20.8828125 C11.9374994,21.0130215 11.7942717,21.078125 11.625,21.078125 C11.4557283,21.078125 11.3059902,21.0195318 11.1757812,20.9023437 C11.0455723,20.7851557 10.9804687,20.6419279 10.9804687,20.4726562 C10.9804687,20.3033846 11.0390619,20.1536465 11.15625,20.0234375 L17.875,12.8554687 C18.1484389,12.5950508 18.4186185,12.3932299 18.6855469,12.25 C18.9524753,12.1067701 19.2226549,12.0221355 19.4960937,11.9960937 C19.717449,11.9830729 19.9778631,12.0156246 20.2773437,12.09375 C20.5768244,12.1718754 20.8893213,12.3736963 21.2148437,12.6992187 C21.7096379,13.180992 21.9277347,13.7473926 21.8691406,14.3984375 C21.8105466,15.0494824 21.4947945,15.6614555 20.921875,16.234375 L11.9960937,25.7460937 C11.6445295,26.097658 11.2604187,26.3743479 10.84375,26.5761719 C10.4270812,26.7779958 9.99739805,26.891927 9.5546875,26.9179687 C9.5286457,26.9179687 9.49934912,26.9212239 9.46679687,26.9277344 C9.43424463,26.9342448 9.40494805,26.9375 9.37890625,26.9375 Z" id="Paper-clip---simple-line-icons" fill="#000000"></path>
                </g>
            </g>
        </g>
    </g>
</svg>