<?xml version="1.0" encoding="UTF-8"?>
<svg width="30px" height="53px" viewBox="0 0 30 53" version="1.1" xmlns="http://www.w3.org/2000/svg" xmlns:xlink="http://www.w3.org/1999/xlink">
    <!-- Generator: Sketch 52.6 (67491) - http://www.bohemiancoding.com/sketch -->
    <title>Drop_icon</title>
    <desc>Created with Sketch.</desc>
    <g id="Page-1" stroke="none" stroke-width="1" fill="none" fill-rule="evenodd">
        <g id="Design" transform="translate(-311.000000, -210.000000)">
            <g id="Group-Copy" transform="translate(89.000000, 180.000000)">
                <g id="Email-Address">
                    <g id="Drop_icon" transform="translate(222.000000, 30.000000)">
                        <g id="Group-12">
                            <rect id="Rectangle-Copy-3" fill="#716DFF" transform="translate(15.259053, 26.296703) scale(1, -1) translate(-15.259053, -26.296703) " x="0.51810585" y="0.483516484" width="29.4818942" height="51.6263736" rx="8"></rect>
                            <g id="sort-arrows-couple-pointing-up-and-down-copy-6" transform="translate(15.749304, 26.824176) scale(1, -1) translate(-15.749304, -26.824176) translate(11.749304, 20.824176)" fill="#FFFFFF" fill-rule="nonzero">
                                <path d="M0.438751676,4.74725275 L6.58072292,4.74725275 C6.6995465,4.74725275 6.80240368,4.69508989 6.88919844,4.59067758 C6.97594517,4.48629414 7.01949861,4.36268521 7.01949861,4.21982192 C7.01949861,4.07695863 6.97596918,3.95340743 6.88919844,3.84887965 L3.81820081,0.156575164 C3.73143006,0.0523071898 3.62864491,0 3.5097493,0 C3.3908537,0 3.28806854,0.0523071898 3.20122577,0.156575164 L0.130228143,3.84887965 C0.0433853715,3.95329196 0,4.07695863 0,4.21982192 C0,4.36265634 0.0433853715,4.48629414 0.130228143,4.59067758 C0.217166954,4.69508989 0.319952109,4.74725275 0.438751676,4.74725275 Z" id="Path"></path>
                                <path d="M6.58072292,7.12087912 L0.438751676,7.12087912 C0.31985607,7.12087912 0.217070915,7.17307179 0.130228143,7.27737054 C0.0433853715,7.38178475 0,7.50536707 0,7.64823297 C0,7.79109887 0.0433853715,7.91476779 0.130228143,8.01912427 L3.20122577,11.7114384 C3.28816458,11.8158526 3.39094974,11.8681319 3.5097493,11.8681319 C3.62854887,11.8681319 3.73143006,11.8158526 3.81820081,11.7114384 L6.88919844,8.0190954 C6.97594517,7.91476779 7.01949861,7.79109887 7.01949861,7.6482041 C7.01949861,7.50536707 6.97596918,7.38178475 6.88919844,7.27734167 C6.80242769,7.17295632 6.6995465,7.12087912 6.58072292,7.12087912 Z" id="Path"></path>
                            </g>
                        </g>
                    </g>
                </g>
            </g>
        </g>
    </g>
</svg>