<?xml version="1.0" encoding="UTF-8"?>
<svg width="25px" height="22px" viewBox="0 0 25 22" version="1.1" xmlns="http://www.w3.org/2000/svg" xmlns:xlink="http://www.w3.org/1999/xlink">
    <!-- Generator: Sketch 52.6 (67491) - http://www.bohemiancoding.com/sketch -->
    <title></title>
    <desc>Created with Sketch.</desc>
    <g id="Page-1" stroke="none" stroke-width="1" fill="none" fill-rule="evenodd" opacity="0.5">
        <g id="Design" transform="translate(-312.000000, -1168.000000)" fill="#FFFFFF">
            <path d="M330.62793,1172.91016 C331.50684,1173.00781 332.332841,1173.25195 333.105957,1173.64258 C333.879073,1174.03321 334.554522,1174.53369 335.132324,1175.14404 C335.710127,1175.7544 336.165851,1176.45426 336.499512,1177.24365 C336.833172,1178.03304 337,1178.87532 337,1179.77051 C337,1180.61687 336.869793,1181.46321 336.609375,1182.30957 C336.348957,1183.15593 335.970543,1183.91683 335.474121,1184.59229 C334.977699,1185.26774 334.359216,1185.82519 333.618652,1186.26465 C332.878089,1186.7041 332.019536,1186.9401 331.042969,1186.97266 L329.260742,1186.97266 C329.049153,1186.97266 328.866049,1186.89535 328.711426,1186.74072 C328.556803,1186.5861 328.479492,1186.403 328.479492,1186.19141 C328.479492,1185.97982 328.556803,1185.79671 328.711426,1185.64209 C328.866049,1185.48747 329.049153,1185.41016 329.260742,1185.41016 L331.042969,1185.41016 C331.71029,1185.41016 332.316566,1185.23926 332.861816,1184.89746 C333.407067,1184.55566 333.874998,1184.11621 334.265625,1183.5791 C334.656252,1183.04199 334.957356,1182.43978 335.168945,1181.77246 C335.380535,1181.10514 335.486328,1180.43783 335.486328,1179.77051 C335.486328,1179.03808 335.339845,1178.35043 335.046875,1177.70752 C334.753905,1177.06461 334.355146,1176.50309 333.850586,1176.02295 C333.346026,1175.5428 332.768232,1175.16032 332.117188,1174.87549 C331.466143,1174.59066 330.774418,1174.44824 330.041992,1174.44824 L329.480469,1174.42383 L329.30957,1173.88672 C328.902667,1172.58463 328.247563,1171.57146 327.344238,1170.84717 C326.440913,1170.12288 325.216154,1169.76074 323.669922,1169.76074 C322.693354,1169.76074 321.814457,1169.92757 321.033203,1170.26123 C320.251949,1170.59489 319.580569,1171.05875 319.019043,1171.65283 C318.457517,1172.24691 318.026206,1172.95491 317.725098,1173.77686 C317.423989,1174.5988 317.273438,1175.48177 317.273438,1176.42578 L317.297852,1176.42578 L317.34668,1177.1582 L316.638672,1177.28027 C315.776037,1177.42676 315.043623,1177.89062 314.441406,1178.67188 C313.83919,1179.45313 313.538086,1180.33203 313.538086,1181.30859 C313.538086,1182.41537 313.908362,1183.37565 314.648926,1184.18945 C315.389489,1185.00326 316.264318,1185.41016 317.273438,1185.41016 L319.519531,1185.41016 C319.747397,1185.41016 319.93457,1185.48747 320.081055,1185.64209 C320.22754,1185.79671 320.300781,1185.97982 320.300781,1186.19141 C320.300781,1186.403 320.22754,1186.5861 320.081055,1186.74072 C319.93457,1186.89535 319.747397,1186.97266 319.519531,1186.97266 L317.273438,1186.97266 C316.557288,1186.97266 315.881839,1186.8221 315.24707,1186.521 C314.612302,1186.21989 314.054853,1185.80892 313.574707,1185.28809 C313.094561,1184.76725 312.712078,1184.16504 312.427246,1183.48145 C312.142414,1182.79785 312,1182.07357 312,1181.30859 C312,1180.05533 312.349931,1178.92416 313.049805,1177.91504 C313.749678,1176.90592 314.644851,1176.23047 315.735352,1175.88867 C315.800456,1174.79817 316.040525,1173.785 316.455566,1172.84912 C316.870608,1171.91324 317.423987,1171.09945 318.115723,1170.40771 C318.807458,1169.71598 319.621252,1169.17481 320.557129,1168.78418 C321.493006,1168.39355 322.530593,1168.19824 323.669922,1168.19824 C324.548833,1168.19824 325.354489,1168.3081 326.086914,1168.52783 C326.81934,1168.74756 327.478513,1169.06087 328.064453,1169.46777 C328.650394,1169.87468 329.154946,1170.37109 329.578125,1170.95703 C330.001304,1171.54297 330.351236,1172.19401 330.62793,1172.91016 Z M325.085938,1179.13574 L327.966797,1182.30957 C328.08073,1182.4235 328.137695,1182.55778 328.137695,1182.7124 C328.137695,1182.86703 328.08073,1183.00944 327.966797,1183.13965 L327.771484,1183.26172 C327.673828,1183.37565 327.54769,1183.42041 327.393066,1183.396 C327.238443,1183.37158 327.104167,1183.30241 326.990234,1183.18848 L325.28125,1181.28418 L325.28125,1189.14551 C325.28125,1189.37337 325.20394,1189.56055 325.049316,1189.70703 C324.894693,1189.85352 324.71159,1189.92676 324.5,1189.92676 C324.272134,1189.92676 324.084962,1189.85352 323.938477,1189.70703 C323.791991,1189.56055 323.71875,1189.37337 323.71875,1189.14551 L323.71875,1181.28418 L322.058594,1183.13965 C321.944661,1183.25358 321.810385,1183.32275 321.655762,1183.34717 C321.501139,1183.37158 321.366863,1183.32682 321.25293,1183.21289 L321.057617,1183.09082 C320.943684,1182.96061 320.886719,1182.8182 320.886719,1182.66357 C320.886719,1182.50895 320.943684,1182.37468 321.057617,1182.26074 L323.889648,1179.13574 C323.889648,1179.13574 323.889648,1179.1276 323.889648,1179.11133 L324.084961,1178.91602 C324.133789,1178.85091 324.194824,1178.80615 324.268066,1178.78174 C324.341309,1178.75732 324.410481,1178.74512 324.475586,1178.74512 C324.556967,1178.74512 324.630208,1178.75732 324.695312,1178.78174 C324.760417,1178.80615 324.825521,1178.85091 324.890625,1178.91602 L325.085938,1179.11133 C325.085938,1179.1276 325.085938,1179.13574 325.085938,1179.13574 Z" id=""></path>
        </g>
    </g>
</svg>