<?xml version="1.0" encoding="UTF-8"?>
<svg width="56px" height="56px" viewBox="0 0 56 56" version="1.1" xmlns="http://www.w3.org/2000/svg" xmlns:xlink="http://www.w3.org/1999/xlink">
    <!-- Generator: Sketch 52.6 (67491) - http://www.bohemiancoding.com/sketch -->
    <title>ic_close</title>
    <desc>Created with Sketch.</desc>
    <g id="Page-1" stroke="none" stroke-width="1" fill="none" fill-rule="evenodd">
        <g id="Design" transform="translate(-1786.000000, -76.000000)">
            <g id="ic_close" transform="translate(1774.000000, 64.000000)">
                <path d="M40,68 C55.463973,68 68,55.463973 68,40 C68,34.4338713 66.3758571,29.2470816 63.5756282,24.8876875 C58.5961834,17.1356923 49.8978443,12 40,12 C24.536027,12 12,24.536027 12,40 C12,55.463973 24.536027,68 40,68 Z" id="Oval" fill="#716DFF" opacity="0.200000003" transform="translate(40.000000, 40.000000) rotate(42.000000) translate(-40.000000, -40.000000) "></path>
                <path d="M40.648,49 C42.3280084,49 43.8959927,48.570671 45.352,47.712 C46.7706738,46.8906626 47.8906626,45.7706738 48.712,44.352 C49.570671,42.8959927 50,41.3280084 50,39.648 C50,37.9679916 49.570671,36.4000073 48.712,34.944 C47.8906626,33.5253262 46.7706738,32.4053374 45.352,31.584 C43.8959927,30.725329 42.3280084,30.296 40.648,30.296 C38.9679916,30.296 37.4000073,30.725329 35.944,31.584 C34.5253262,32.4053374 33.4053374,33.5253262 32.584,34.944 C31.725329,36.4000073 31.296,37.9679916 31.296,39.648 C31.296,41.3280084 31.725329,42.8959927 32.584,44.352 C33.4053374,45.7706738 34.5253262,46.8906626 35.944,47.712 C37.4000073,48.570671 38.9679916,49 40.648,49 Z M40.648,28 C42.7760106,28 44.7453243,28.5319947 46.556,29.596 C48.3106754,30.604005 49.691995,31.9853246 50.7,33.74 C51.7640053,35.5506757 52.296,37.5199894 52.296,39.648 C52.296,41.7760106 51.7640053,43.7453243 50.7,45.556 C49.691995,47.3106754 48.3106754,48.691995 46.556,49.7 C44.7453243,50.7640053 42.7760106,51.296 40.648,51.296 C38.5199894,51.296 36.5506757,50.7640053 34.74,49.7 C32.9853246,48.6733282 31.604005,47.2826754 30.596,45.528 C29.5319947,43.7173243 29,41.7573439 29,39.648 C29,37.5386561 29.5319947,35.5786757 30.596,33.768 C31.6226718,32.0133246 33.0133246,30.6226718 34.768,29.596 C36.5786757,28.5319947 38.5386561,28 40.648,28 Z M41.796,33.796 L41.796,38.5 L46.5,38.5 L46.5,40.796 L41.796,40.796 L41.796,45.5 L39.5,45.5 L39.5,40.796 L34.796,40.796 L34.796,38.5 L39.5,38.5 L39.5,33.796 L41.796,33.796 Z" id="" fill="#FFFFFF" transform="translate(40.648000, 39.648000) rotate(48.000000) translate(-40.648000, -39.648000) "></path>
            </g>
        </g>
    </g>
</svg>